G04 EAGLE Gerber RS-274X export*
G75*
%MOMM*%
%FSLAX34Y34*%
%LPD*%
%IN*%
%IPPOS*%
%AMOC8*
5,1,8,0,0,1.08239X$1,22.5*%
G01*
%ADD10C,0.254000*%


D10*
X1257300Y209550D02*
X2983030Y210820D01*
X2983030Y1481330D01*
X1258570Y1481330D01*
X1257300Y209550D01*
X2672927Y417030D02*
X2672144Y417099D01*
X2671370Y417235D01*
X2670611Y417438D01*
X2669873Y417707D01*
X2669160Y418039D01*
X2668480Y418432D01*
X2667836Y418883D01*
X2667234Y419388D01*
X2666678Y419944D01*
X2666173Y420546D01*
X2665722Y421190D01*
X2665329Y421870D01*
X2664997Y422583D01*
X2664728Y423321D01*
X2664525Y424080D01*
X2664389Y424854D01*
X2664320Y425637D01*
X2664320Y426423D01*
X2664389Y427206D01*
X2664525Y427980D01*
X2664728Y428739D01*
X2664997Y429477D01*
X2665329Y430190D01*
X2665722Y430870D01*
X2666173Y431514D01*
X2666678Y432116D01*
X2667234Y432672D01*
X2667836Y433177D01*
X2668480Y433628D01*
X2669160Y434021D01*
X2669873Y434353D01*
X2670611Y434622D01*
X2671370Y434825D01*
X2672144Y434962D01*
X2672927Y435030D01*
X2673713Y435030D01*
X2674496Y434962D01*
X2675270Y434825D01*
X2676029Y434622D01*
X2676767Y434353D01*
X2677480Y434021D01*
X2678160Y433628D01*
X2678804Y433177D01*
X2679406Y432672D01*
X2679962Y432116D01*
X2680467Y431514D01*
X2680918Y430870D01*
X2681311Y430190D01*
X2681643Y429477D01*
X2681912Y428739D01*
X2682115Y427980D01*
X2682252Y427206D01*
X2682320Y426423D01*
X2682320Y425637D01*
X2682252Y424854D01*
X2682115Y424080D01*
X2681912Y423321D01*
X2681643Y422583D01*
X2681311Y421870D01*
X2680918Y421190D01*
X2680467Y420546D01*
X2679962Y419944D01*
X2679406Y419388D01*
X2678804Y418883D01*
X2678160Y418432D01*
X2677480Y418039D01*
X2676767Y417707D01*
X2676029Y417438D01*
X2675270Y417235D01*
X2674496Y417099D01*
X2673713Y417030D01*
X2672927Y417030D01*
X2672927Y362530D02*
X2672144Y362599D01*
X2671370Y362735D01*
X2670611Y362938D01*
X2669873Y363207D01*
X2669160Y363539D01*
X2668480Y363932D01*
X2667836Y364383D01*
X2667234Y364888D01*
X2666678Y365444D01*
X2666173Y366046D01*
X2665722Y366690D01*
X2665329Y367370D01*
X2664997Y368083D01*
X2664728Y368821D01*
X2664525Y369580D01*
X2664389Y370354D01*
X2664320Y371137D01*
X2664320Y371923D01*
X2664389Y372706D01*
X2664525Y373480D01*
X2664728Y374239D01*
X2664997Y374977D01*
X2665329Y375690D01*
X2665722Y376370D01*
X2666173Y377014D01*
X2666678Y377616D01*
X2667234Y378172D01*
X2667836Y378677D01*
X2668480Y379128D01*
X2669160Y379521D01*
X2669873Y379853D01*
X2670611Y380122D01*
X2671370Y380325D01*
X2672144Y380462D01*
X2672927Y380530D01*
X2673713Y380530D01*
X2674496Y380462D01*
X2675270Y380325D01*
X2676029Y380122D01*
X2676767Y379853D01*
X2677480Y379521D01*
X2678160Y379128D01*
X2678804Y378677D01*
X2679406Y378172D01*
X2679962Y377616D01*
X2680467Y377014D01*
X2680918Y376370D01*
X2681311Y375690D01*
X2681643Y374977D01*
X2681912Y374239D01*
X2682115Y373480D01*
X2682252Y372706D01*
X2682320Y371923D01*
X2682320Y371137D01*
X2682252Y370354D01*
X2682115Y369580D01*
X2681912Y368821D01*
X2681643Y368083D01*
X2681311Y367370D01*
X2680918Y366690D01*
X2680467Y366046D01*
X2679962Y365444D01*
X2679406Y364888D01*
X2678804Y364383D01*
X2678160Y363932D01*
X2677480Y363539D01*
X2676767Y363207D01*
X2676029Y362938D01*
X2675270Y362735D01*
X2674496Y362599D01*
X2673713Y362530D01*
X2672927Y362530D01*
X2642652Y415530D02*
X2641918Y415602D01*
X2641195Y415746D01*
X2640490Y415960D01*
X2639809Y416242D01*
X2639160Y416589D01*
X2638547Y416999D01*
X2637977Y417466D01*
X2637456Y417987D01*
X2636989Y418557D01*
X2636579Y419170D01*
X2636232Y419819D01*
X2635950Y420500D01*
X2635736Y421205D01*
X2635592Y421928D01*
X2635520Y422662D01*
X2635520Y423398D01*
X2635592Y424132D01*
X2635736Y424855D01*
X2635950Y425560D01*
X2636232Y426241D01*
X2636579Y426890D01*
X2636989Y427503D01*
X2637456Y428073D01*
X2637977Y428594D01*
X2638547Y429061D01*
X2639160Y429471D01*
X2639809Y429818D01*
X2640490Y430100D01*
X2641195Y430314D01*
X2641918Y430458D01*
X2642652Y430530D01*
X2643388Y430530D01*
X2644122Y430458D01*
X2644845Y430314D01*
X2645550Y430100D01*
X2646231Y429818D01*
X2646880Y429471D01*
X2647493Y429061D01*
X2648063Y428594D01*
X2648584Y428073D01*
X2649051Y427503D01*
X2649461Y426890D01*
X2649808Y426241D01*
X2650090Y425560D01*
X2650304Y424855D01*
X2650448Y424132D01*
X2650520Y423398D01*
X2650520Y422662D01*
X2650448Y421928D01*
X2650304Y421205D01*
X2650090Y420500D01*
X2649808Y419819D01*
X2649461Y419170D01*
X2649051Y418557D01*
X2648584Y417987D01*
X2648063Y417466D01*
X2647493Y416999D01*
X2646880Y416589D01*
X2646231Y416242D01*
X2645550Y415960D01*
X2644845Y415746D01*
X2644122Y415602D01*
X2643388Y415530D01*
X2642652Y415530D01*
X2642652Y367030D02*
X2641918Y367102D01*
X2641195Y367246D01*
X2640490Y367460D01*
X2639809Y367742D01*
X2639160Y368089D01*
X2638547Y368499D01*
X2637977Y368966D01*
X2637456Y369487D01*
X2636989Y370057D01*
X2636579Y370670D01*
X2636232Y371319D01*
X2635950Y372000D01*
X2635736Y372705D01*
X2635592Y373428D01*
X2635520Y374162D01*
X2635520Y374898D01*
X2635592Y375632D01*
X2635736Y376355D01*
X2635950Y377060D01*
X2636232Y377741D01*
X2636579Y378390D01*
X2636989Y379003D01*
X2637456Y379573D01*
X2637977Y380094D01*
X2638547Y380561D01*
X2639160Y380971D01*
X2639809Y381318D01*
X2640490Y381600D01*
X2641195Y381814D01*
X2641918Y381958D01*
X2642652Y382030D01*
X2643388Y382030D01*
X2644122Y381958D01*
X2644845Y381814D01*
X2645550Y381600D01*
X2646231Y381318D01*
X2646880Y380971D01*
X2647493Y380561D01*
X2648063Y380094D01*
X2648584Y379573D01*
X2649051Y379003D01*
X2649461Y378390D01*
X2649808Y377741D01*
X2650090Y377060D01*
X2650304Y376355D01*
X2650448Y375632D01*
X2650520Y374898D01*
X2650520Y374162D01*
X2650448Y373428D01*
X2650304Y372705D01*
X2650090Y372000D01*
X2649808Y371319D01*
X2649461Y370670D01*
X2649051Y370057D01*
X2648584Y369487D01*
X2648063Y368966D01*
X2647493Y368499D01*
X2646880Y368089D01*
X2646231Y367742D01*
X2645550Y367460D01*
X2644845Y367246D01*
X2644122Y367102D01*
X2643388Y367030D01*
X2642652Y367030D01*
M02*
