M48
;GenerationSoftware,Autodesk,EAGLE,9.6.2*%
;CreationDate,2022-06-06T05:35:21Z*%
FMAT,2
ICI,OFF
METRIC,TZ,000.000
T7C0.350
T6C1.000
T5C1.016
T4C1.400
T3C1.500
T2C1.800
%
G90
M71
T2
X267332Y42603
X267332Y37153
T3
X264302Y37453
X264302Y42303
T4
X217761Y126501
X217761Y122301
X217761Y118101
X212261Y118101
X212261Y126501
X212261Y122301
T5
X272669Y66294
X270129Y66294
X275209Y66294
X239776Y82804
X239776Y80264
X232156Y98044
X232156Y95504
X232156Y92964
X232156Y90424
X232156Y87884
X244729Y66294
X178435Y66294
X180975Y66294
X183515Y66294
X186055Y66294
X188595Y66294
X191135Y66294
X193675Y66294
X196215Y66294
X198755Y66294
X232156Y80264
X247269Y66294
X249809Y66294
X252349Y66294
X254889Y66294
X257429Y66294
X259969Y66294
X262509Y66294
X265049Y66294
X267589Y66294
X158877Y101473
X193675Y120396
X158877Y83693
X158877Y86233
X158877Y88773
X158877Y91313
X158877Y93853
X158877Y96393
X158877Y98933
X193675Y117856
X166497Y83693
X166497Y86233
X166497Y88773
X166497Y91313
X166497Y93853
X166497Y96393
X166497Y98933
X166497Y101473
X186055Y117856
X232156Y82804
X170815Y66294
X186055Y102616
X186055Y105156
X186055Y107696
X186055Y110236
X186055Y112776
X186055Y115316
X232156Y85344
X186055Y120396
X193675Y102616
X193675Y105156
X193675Y107696
X193675Y110236
X193675Y112776
X193675Y115316
X156845Y38735
X269113Y104521
X269113Y101981
X261493Y119761
X261493Y117221
X261493Y114681
X261493Y112141
X261493Y109601
X261493Y107061
X269113Y107061
X156845Y41275
X237236Y127254
X239776Y127254
X242316Y127254
X244856Y127254
X247396Y127254
X249936Y127254
X252476Y127254
X283210Y43180
X283591Y30607
X283591Y28067
X283591Y25527
X282956Y60579
X282956Y58039
X282956Y55499
X283210Y48260
X283210Y45720
X255016Y127254
X136779Y44958
X136779Y42418
X136779Y39878
X269113Y119761
X269113Y117221
X269113Y114681
X269113Y112141
X269113Y109601
X184785Y34925
X261493Y101981
X239776Y98044
X239776Y95504
X239776Y92964
X239776Y90424
X239776Y87884
X239776Y85344
X184785Y32385
X261493Y104521
X184785Y37465
X184785Y40005
X184785Y42545
X184785Y45085
X184785Y47625
X168275Y66294
X173355Y66294
X168402Y127254
X257556Y127254
X260096Y127254
X262636Y127254
X265176Y127254
X160782Y127254
X163322Y127254
X165862Y127254
X175895Y66294
X170942Y127254
X173482Y127254
X176022Y127254
X178562Y127254
X181102Y127254
X183642Y127254
X186182Y127254
X188722Y127254
T6
X257302Y48768
X249682Y48768
X226822Y48768
X229362Y48768
X231902Y48768
X234442Y48768
X236982Y48768
X239522Y48768
X242062Y48768
X244602Y48768
X247142Y48768
X254762Y48768
X259842Y48768
X262382Y48768
X219432Y39878
X252222Y48768
X264922Y48768
X267462Y48768
X262636Y139319
X260096Y139319
X242316Y139319
X239776Y139319
X186182Y139192
X183642Y139192
X165862Y139319
X163322Y139319
X221742Y48768
X219432Y37338
X219432Y42418
X267462Y30988
X264922Y30988
X262382Y30988
X259842Y30988
X257302Y30988
X254762Y30988
X252222Y30988
X249682Y30988
X247142Y30988
X244602Y30988
X239522Y30988
X242062Y30988
X219202Y48768
X219202Y30988
X221742Y30988
X224282Y30988
X226822Y30988
X229362Y30988
X231902Y30988
X234442Y30988
X224282Y48768
X236982Y30988
T7
X284607Y112395
X284607Y116967
X284607Y104521
X133477Y116459
X132969Y98425
X132842Y106680
X133096Y87503
X132969Y109855
X133096Y91186
X133223Y113157
X132969Y94869
X136398Y73152
X226568Y32385
X284607Y108966
X254889Y74549
X257429Y77597
X256032Y84074
X287528Y72517
X291465Y89789
X291719Y108839
X291592Y93472
X291719Y113030
X291465Y97282
X291719Y116967
X291719Y86106
X291846Y104521
X207518Y35052
M30