G04 EAGLE Gerber RS-274X export*
G75*
%MOMM*%
%FSLAX34Y34*%
%LPD*%
%IN*%
%IPPOS*%
%AMOC8*
5,1,8,0,0,1.08239X$1,22.5*%
G01*
%ADD10C,0.254000*%


D10*
X228600Y-482600D02*
X1473000Y-482600D01*
X1473000Y1012700D01*
X228600Y1012700D01*
X228600Y-482600D01*
X1301242Y-257048D02*
X1314958Y-257048D01*
X1314958Y-200152D01*
X1301242Y-200152D01*
X1301242Y-257048D01*
X1348740Y-228092D02*
X1405636Y-228092D01*
X1405636Y-214376D01*
X1348740Y-214376D01*
X1348740Y-228092D01*
X281940Y964656D02*
X281862Y963570D01*
X281707Y962492D01*
X281476Y961429D01*
X281169Y960384D01*
X280789Y959364D01*
X280337Y958374D01*
X279815Y957419D01*
X279226Y956503D01*
X278574Y955631D01*
X277861Y954809D01*
X277091Y954039D01*
X276269Y953326D01*
X275397Y952674D01*
X274481Y952085D01*
X273526Y951563D01*
X272536Y951111D01*
X271516Y950731D01*
X270471Y950424D01*
X269408Y950193D01*
X268330Y950038D01*
X267244Y949960D01*
X266156Y949960D01*
X265070Y950038D01*
X263992Y950193D01*
X262929Y950424D01*
X261884Y950731D01*
X260864Y951111D01*
X259874Y951563D01*
X258919Y952085D01*
X258003Y952674D01*
X257131Y953326D01*
X256309Y954039D01*
X255539Y954809D01*
X254826Y955631D01*
X254174Y956503D01*
X253585Y957419D01*
X253063Y958374D01*
X252611Y959364D01*
X252231Y960384D01*
X251924Y961429D01*
X251693Y962492D01*
X251538Y963570D01*
X251460Y964656D01*
X251460Y965744D01*
X251538Y966830D01*
X251693Y967908D01*
X251924Y968971D01*
X252231Y970016D01*
X252611Y971036D01*
X253063Y972026D01*
X253585Y972981D01*
X254174Y973897D01*
X254826Y974769D01*
X255539Y975591D01*
X256309Y976361D01*
X257131Y977074D01*
X258003Y977726D01*
X258919Y978315D01*
X259874Y978837D01*
X260864Y979289D01*
X261884Y979669D01*
X262929Y979976D01*
X263992Y980207D01*
X265070Y980362D01*
X266156Y980440D01*
X267244Y980440D01*
X268330Y980362D01*
X269408Y980207D01*
X270471Y979976D01*
X271516Y979669D01*
X272536Y979289D01*
X273526Y978837D01*
X274481Y978315D01*
X275397Y977726D01*
X276269Y977074D01*
X277091Y976361D01*
X277861Y975591D01*
X278574Y974769D01*
X279226Y973897D01*
X279815Y972981D01*
X280337Y972026D01*
X280789Y971036D01*
X281169Y970016D01*
X281476Y968971D01*
X281707Y967908D01*
X281862Y966830D01*
X281940Y965744D01*
X281940Y964656D01*
X1437640Y951956D02*
X1437562Y950870D01*
X1437407Y949792D01*
X1437176Y948729D01*
X1436869Y947684D01*
X1436489Y946664D01*
X1436037Y945674D01*
X1435515Y944719D01*
X1434926Y943803D01*
X1434274Y942931D01*
X1433561Y942109D01*
X1432791Y941339D01*
X1431969Y940626D01*
X1431097Y939974D01*
X1430181Y939385D01*
X1429226Y938863D01*
X1428236Y938411D01*
X1427216Y938031D01*
X1426171Y937724D01*
X1425108Y937493D01*
X1424030Y937338D01*
X1422944Y937260D01*
X1421856Y937260D01*
X1420770Y937338D01*
X1419692Y937493D01*
X1418629Y937724D01*
X1417584Y938031D01*
X1416564Y938411D01*
X1415574Y938863D01*
X1414619Y939385D01*
X1413703Y939974D01*
X1412831Y940626D01*
X1412009Y941339D01*
X1411239Y942109D01*
X1410526Y942931D01*
X1409874Y943803D01*
X1409285Y944719D01*
X1408763Y945674D01*
X1408311Y946664D01*
X1407931Y947684D01*
X1407624Y948729D01*
X1407393Y949792D01*
X1407238Y950870D01*
X1407160Y951956D01*
X1407160Y953044D01*
X1407238Y954130D01*
X1407393Y955208D01*
X1407624Y956271D01*
X1407931Y957316D01*
X1408311Y958336D01*
X1408763Y959326D01*
X1409285Y960281D01*
X1409874Y961197D01*
X1410526Y962069D01*
X1411239Y962891D01*
X1412009Y963661D01*
X1412831Y964374D01*
X1413703Y965026D01*
X1414619Y965615D01*
X1415574Y966137D01*
X1416564Y966589D01*
X1417584Y966969D01*
X1418629Y967276D01*
X1419692Y967507D01*
X1420770Y967662D01*
X1421856Y967740D01*
X1422944Y967740D01*
X1424030Y967662D01*
X1425108Y967507D01*
X1426171Y967276D01*
X1427216Y966969D01*
X1428236Y966589D01*
X1429226Y966137D01*
X1430181Y965615D01*
X1431097Y965026D01*
X1431969Y964374D01*
X1432791Y963661D01*
X1433561Y962891D01*
X1434274Y962069D01*
X1434926Y961197D01*
X1435515Y960281D01*
X1436037Y959326D01*
X1436489Y958336D01*
X1436869Y957316D01*
X1437176Y956271D01*
X1437407Y955208D01*
X1437562Y954130D01*
X1437640Y953044D01*
X1437640Y951956D01*
X1437640Y-432344D02*
X1437562Y-433430D01*
X1437407Y-434508D01*
X1437176Y-435571D01*
X1436869Y-436616D01*
X1436489Y-437636D01*
X1436037Y-438626D01*
X1435515Y-439581D01*
X1434926Y-440497D01*
X1434274Y-441369D01*
X1433561Y-442191D01*
X1432791Y-442961D01*
X1431969Y-443674D01*
X1431097Y-444326D01*
X1430181Y-444915D01*
X1429226Y-445437D01*
X1428236Y-445889D01*
X1427216Y-446269D01*
X1426171Y-446576D01*
X1425108Y-446807D01*
X1424030Y-446962D01*
X1422944Y-447040D01*
X1421856Y-447040D01*
X1420770Y-446962D01*
X1419692Y-446807D01*
X1418629Y-446576D01*
X1417584Y-446269D01*
X1416564Y-445889D01*
X1415574Y-445437D01*
X1414619Y-444915D01*
X1413703Y-444326D01*
X1412831Y-443674D01*
X1412009Y-442961D01*
X1411239Y-442191D01*
X1410526Y-441369D01*
X1409874Y-440497D01*
X1409285Y-439581D01*
X1408763Y-438626D01*
X1408311Y-437636D01*
X1407931Y-436616D01*
X1407624Y-435571D01*
X1407393Y-434508D01*
X1407238Y-433430D01*
X1407160Y-432344D01*
X1407160Y-431256D01*
X1407238Y-430170D01*
X1407393Y-429092D01*
X1407624Y-428029D01*
X1407931Y-426984D01*
X1408311Y-425964D01*
X1408763Y-424974D01*
X1409285Y-424019D01*
X1409874Y-423103D01*
X1410526Y-422231D01*
X1411239Y-421409D01*
X1412009Y-420639D01*
X1412831Y-419926D01*
X1413703Y-419274D01*
X1414619Y-418685D01*
X1415574Y-418163D01*
X1416564Y-417711D01*
X1417584Y-417331D01*
X1418629Y-417024D01*
X1419692Y-416793D01*
X1420770Y-416638D01*
X1421856Y-416560D01*
X1422944Y-416560D01*
X1424030Y-416638D01*
X1425108Y-416793D01*
X1426171Y-417024D01*
X1427216Y-417331D01*
X1428236Y-417711D01*
X1429226Y-418163D01*
X1430181Y-418685D01*
X1431097Y-419274D01*
X1431969Y-419926D01*
X1432791Y-420639D01*
X1433561Y-421409D01*
X1434274Y-422231D01*
X1434926Y-423103D01*
X1435515Y-424019D01*
X1436037Y-424974D01*
X1436489Y-425964D01*
X1436869Y-426984D01*
X1437176Y-428029D01*
X1437407Y-429092D01*
X1437562Y-430170D01*
X1437640Y-431256D01*
X1437640Y-432344D01*
X269240Y-445044D02*
X269162Y-446130D01*
X269007Y-447208D01*
X268776Y-448271D01*
X268469Y-449316D01*
X268089Y-450336D01*
X267637Y-451326D01*
X267115Y-452281D01*
X266526Y-453197D01*
X265874Y-454069D01*
X265161Y-454891D01*
X264391Y-455661D01*
X263569Y-456374D01*
X262697Y-457026D01*
X261781Y-457615D01*
X260826Y-458137D01*
X259836Y-458589D01*
X258816Y-458969D01*
X257771Y-459276D01*
X256708Y-459507D01*
X255630Y-459662D01*
X254544Y-459740D01*
X253456Y-459740D01*
X252370Y-459662D01*
X251292Y-459507D01*
X250229Y-459276D01*
X249184Y-458969D01*
X248164Y-458589D01*
X247174Y-458137D01*
X246219Y-457615D01*
X245303Y-457026D01*
X244431Y-456374D01*
X243609Y-455661D01*
X242839Y-454891D01*
X242126Y-454069D01*
X241474Y-453197D01*
X240885Y-452281D01*
X240363Y-451326D01*
X239911Y-450336D01*
X239531Y-449316D01*
X239224Y-448271D01*
X238993Y-447208D01*
X238838Y-446130D01*
X238760Y-445044D01*
X238760Y-443956D01*
X238838Y-442870D01*
X238993Y-441792D01*
X239224Y-440729D01*
X239531Y-439684D01*
X239911Y-438664D01*
X240363Y-437674D01*
X240885Y-436719D01*
X241474Y-435803D01*
X242126Y-434931D01*
X242839Y-434109D01*
X243609Y-433339D01*
X244431Y-432626D01*
X245303Y-431974D01*
X246219Y-431385D01*
X247174Y-430863D01*
X248164Y-430411D01*
X249184Y-430031D01*
X250229Y-429724D01*
X251292Y-429493D01*
X252370Y-429338D01*
X253456Y-429260D01*
X254544Y-429260D01*
X255630Y-429338D01*
X256708Y-429493D01*
X257771Y-429724D01*
X258816Y-430031D01*
X259836Y-430411D01*
X260826Y-430863D01*
X261781Y-431385D01*
X262697Y-431974D01*
X263569Y-432626D01*
X264391Y-433339D01*
X265161Y-434109D01*
X265874Y-434931D01*
X266526Y-435803D01*
X267115Y-436719D01*
X267637Y-437674D01*
X268089Y-438664D01*
X268469Y-439684D01*
X268776Y-440729D01*
X269007Y-441792D01*
X269162Y-442870D01*
X269240Y-443956D01*
X269240Y-445044D01*
X774176Y644400D02*
X773131Y644469D01*
X772092Y644605D01*
X771065Y644810D01*
X770053Y645081D01*
X769061Y645417D01*
X768093Y645818D01*
X767154Y646282D01*
X766246Y646806D01*
X765375Y647388D01*
X764544Y648025D01*
X763757Y648716D01*
X763016Y649457D01*
X762325Y650244D01*
X761688Y651075D01*
X761106Y651946D01*
X760582Y652854D01*
X760118Y653793D01*
X759717Y654761D01*
X759381Y655753D01*
X759110Y656765D01*
X758905Y657792D01*
X758769Y658831D01*
X758700Y659876D01*
X758700Y660924D01*
X758769Y661969D01*
X758905Y663008D01*
X759110Y664035D01*
X759381Y665047D01*
X759717Y666039D01*
X760118Y667007D01*
X760582Y667946D01*
X761106Y668854D01*
X761688Y669725D01*
X762325Y670556D01*
X763016Y671343D01*
X763757Y672084D01*
X764544Y672775D01*
X765375Y673413D01*
X766246Y673995D01*
X767154Y674518D01*
X768093Y674982D01*
X769061Y675383D01*
X770053Y675719D01*
X771065Y675990D01*
X772092Y676195D01*
X773131Y676332D01*
X774176Y676400D01*
X775224Y676400D01*
X776269Y676332D01*
X777308Y676195D01*
X778335Y675990D01*
X779347Y675719D01*
X780339Y675383D01*
X781307Y674982D01*
X782246Y674518D01*
X783154Y673995D01*
X784025Y673413D01*
X784856Y672775D01*
X785643Y672084D01*
X786384Y671343D01*
X787075Y670556D01*
X787713Y669725D01*
X788295Y668854D01*
X788818Y667946D01*
X789282Y667007D01*
X789683Y666039D01*
X790019Y665047D01*
X790290Y664035D01*
X790495Y663008D01*
X790632Y661969D01*
X790700Y660924D01*
X790700Y659876D01*
X790632Y658831D01*
X790495Y657792D01*
X790290Y656765D01*
X790019Y655753D01*
X789683Y654761D01*
X789282Y653793D01*
X788818Y652854D01*
X788295Y651946D01*
X787713Y651075D01*
X787075Y650244D01*
X786384Y649457D01*
X785643Y648716D01*
X784856Y648025D01*
X784025Y647388D01*
X783154Y646806D01*
X782246Y646282D01*
X781307Y645818D01*
X780339Y645417D01*
X779347Y645081D01*
X778335Y644810D01*
X777308Y644605D01*
X776269Y644469D01*
X775224Y644400D01*
X774176Y644400D01*
X291576Y644400D02*
X290531Y644469D01*
X289492Y644605D01*
X288465Y644810D01*
X287453Y645081D01*
X286461Y645417D01*
X285493Y645818D01*
X284554Y646282D01*
X283646Y646806D01*
X282775Y647388D01*
X281944Y648025D01*
X281157Y648716D01*
X280416Y649457D01*
X279725Y650244D01*
X279088Y651075D01*
X278506Y651946D01*
X277982Y652854D01*
X277518Y653793D01*
X277117Y654761D01*
X276781Y655753D01*
X276510Y656765D01*
X276305Y657792D01*
X276169Y658831D01*
X276100Y659876D01*
X276100Y660924D01*
X276169Y661969D01*
X276305Y663008D01*
X276510Y664035D01*
X276781Y665047D01*
X277117Y666039D01*
X277518Y667007D01*
X277982Y667946D01*
X278506Y668854D01*
X279088Y669725D01*
X279725Y670556D01*
X280416Y671343D01*
X281157Y672084D01*
X281944Y672775D01*
X282775Y673413D01*
X283646Y673995D01*
X284554Y674518D01*
X285493Y674982D01*
X286461Y675383D01*
X287453Y675719D01*
X288465Y675990D01*
X289492Y676195D01*
X290531Y676332D01*
X291576Y676400D01*
X292624Y676400D01*
X293669Y676332D01*
X294708Y676195D01*
X295735Y675990D01*
X296747Y675719D01*
X297739Y675383D01*
X298707Y674982D01*
X299646Y674518D01*
X300554Y673995D01*
X301425Y673413D01*
X302256Y672775D01*
X303043Y672084D01*
X303784Y671343D01*
X304475Y670556D01*
X305113Y669725D01*
X305695Y668854D01*
X306218Y667946D01*
X306682Y667007D01*
X307083Y666039D01*
X307419Y665047D01*
X307690Y664035D01*
X307895Y663008D01*
X308032Y661969D01*
X308100Y660924D01*
X308100Y659876D01*
X308032Y658831D01*
X307895Y657792D01*
X307690Y656765D01*
X307419Y655753D01*
X307083Y654761D01*
X306682Y653793D01*
X306218Y652854D01*
X305695Y651946D01*
X305113Y651075D01*
X304475Y650244D01*
X303784Y649457D01*
X303043Y648716D01*
X302256Y648025D01*
X301425Y647388D01*
X300554Y646806D01*
X299646Y646282D01*
X298707Y645818D01*
X297739Y645417D01*
X296747Y645081D01*
X295735Y644810D01*
X294708Y644605D01*
X293669Y644469D01*
X292624Y644400D01*
X291576Y644400D01*
X774176Y-104900D02*
X773131Y-104832D01*
X772092Y-104695D01*
X771065Y-104490D01*
X770053Y-104219D01*
X769061Y-103883D01*
X768093Y-103482D01*
X767154Y-103018D01*
X766246Y-102495D01*
X765375Y-101913D01*
X764544Y-101275D01*
X763757Y-100584D01*
X763016Y-99843D01*
X762325Y-99056D01*
X761688Y-98225D01*
X761106Y-97354D01*
X760582Y-96446D01*
X760118Y-95507D01*
X759717Y-94539D01*
X759381Y-93547D01*
X759110Y-92535D01*
X758905Y-91508D01*
X758769Y-90469D01*
X758700Y-89424D01*
X758700Y-88376D01*
X758769Y-87331D01*
X758905Y-86292D01*
X759110Y-85265D01*
X759381Y-84253D01*
X759717Y-83261D01*
X760118Y-82293D01*
X760582Y-81354D01*
X761106Y-80446D01*
X761688Y-79575D01*
X762325Y-78744D01*
X763016Y-77957D01*
X763757Y-77216D01*
X764544Y-76525D01*
X765375Y-75888D01*
X766246Y-75306D01*
X767154Y-74782D01*
X768093Y-74318D01*
X769061Y-73917D01*
X770053Y-73581D01*
X771065Y-73310D01*
X772092Y-73105D01*
X773131Y-72969D01*
X774176Y-72900D01*
X775224Y-72900D01*
X776269Y-72969D01*
X777308Y-73105D01*
X778335Y-73310D01*
X779347Y-73581D01*
X780339Y-73917D01*
X781307Y-74318D01*
X782246Y-74782D01*
X783154Y-75306D01*
X784025Y-75888D01*
X784856Y-76525D01*
X785643Y-77216D01*
X786384Y-77957D01*
X787075Y-78744D01*
X787713Y-79575D01*
X788295Y-80446D01*
X788818Y-81354D01*
X789282Y-82293D01*
X789683Y-83261D01*
X790019Y-84253D01*
X790290Y-85265D01*
X790495Y-86292D01*
X790632Y-87331D01*
X790700Y-88376D01*
X790700Y-89424D01*
X790632Y-90469D01*
X790495Y-91508D01*
X790290Y-92535D01*
X790019Y-93547D01*
X789683Y-94539D01*
X789282Y-95507D01*
X788818Y-96446D01*
X788295Y-97354D01*
X787713Y-98225D01*
X787075Y-99056D01*
X786384Y-99843D01*
X785643Y-100584D01*
X784856Y-101275D01*
X784025Y-101913D01*
X783154Y-102495D01*
X782246Y-103018D01*
X781307Y-103482D01*
X780339Y-103883D01*
X779347Y-104219D01*
X778335Y-104490D01*
X777308Y-104695D01*
X776269Y-104832D01*
X775224Y-104900D01*
X774176Y-104900D01*
X291576Y-168400D02*
X290531Y-168332D01*
X289492Y-168195D01*
X288465Y-167990D01*
X287453Y-167719D01*
X286461Y-167383D01*
X285493Y-166982D01*
X284554Y-166518D01*
X283646Y-165995D01*
X282775Y-165413D01*
X281944Y-164775D01*
X281157Y-164084D01*
X280416Y-163343D01*
X279725Y-162556D01*
X279088Y-161725D01*
X278506Y-160854D01*
X277982Y-159946D01*
X277518Y-159007D01*
X277117Y-158039D01*
X276781Y-157047D01*
X276510Y-156035D01*
X276305Y-155008D01*
X276169Y-153969D01*
X276100Y-152924D01*
X276100Y-151876D01*
X276169Y-150831D01*
X276305Y-149792D01*
X276510Y-148765D01*
X276781Y-147753D01*
X277117Y-146761D01*
X277518Y-145793D01*
X277982Y-144854D01*
X278506Y-143946D01*
X279088Y-143075D01*
X279725Y-142244D01*
X280416Y-141457D01*
X281157Y-140716D01*
X281944Y-140025D01*
X282775Y-139388D01*
X283646Y-138806D01*
X284554Y-138282D01*
X285493Y-137818D01*
X286461Y-137417D01*
X287453Y-137081D01*
X288465Y-136810D01*
X289492Y-136605D01*
X290531Y-136469D01*
X291576Y-136400D01*
X292624Y-136400D01*
X293669Y-136469D01*
X294708Y-136605D01*
X295735Y-136810D01*
X296747Y-137081D01*
X297739Y-137417D01*
X298707Y-137818D01*
X299646Y-138282D01*
X300554Y-138806D01*
X301425Y-139388D01*
X302256Y-140025D01*
X303043Y-140716D01*
X303784Y-141457D01*
X304475Y-142244D01*
X305113Y-143075D01*
X305695Y-143946D01*
X306218Y-144854D01*
X306682Y-145793D01*
X307083Y-146761D01*
X307419Y-147753D01*
X307690Y-148765D01*
X307895Y-149792D01*
X308032Y-150831D01*
X308100Y-151876D01*
X308100Y-152924D01*
X308032Y-153969D01*
X307895Y-155008D01*
X307690Y-156035D01*
X307419Y-157047D01*
X307083Y-158039D01*
X306682Y-159007D01*
X306218Y-159946D01*
X305695Y-160854D01*
X305113Y-161725D01*
X304475Y-162556D01*
X303784Y-163343D01*
X303043Y-164084D01*
X302256Y-164775D01*
X301425Y-165413D01*
X300554Y-165995D01*
X299646Y-166518D01*
X298707Y-166982D01*
X297739Y-167383D01*
X296747Y-167719D01*
X295735Y-167990D01*
X294708Y-168195D01*
X293669Y-168332D01*
X292624Y-168400D01*
X291576Y-168400D01*
X545663Y61120D02*
X544794Y61196D01*
X543934Y61348D01*
X543090Y61574D01*
X542270Y61872D01*
X541478Y62241D01*
X540722Y62678D01*
X540007Y63179D01*
X539338Y63740D01*
X538720Y64358D01*
X538159Y65027D01*
X537658Y65742D01*
X537221Y66498D01*
X536852Y67290D01*
X536554Y68110D01*
X536328Y68954D01*
X536176Y69814D01*
X536100Y70683D01*
X536100Y71557D01*
X536176Y72427D01*
X536328Y73286D01*
X536554Y74130D01*
X536852Y74950D01*
X537221Y75742D01*
X537658Y76498D01*
X538159Y77213D01*
X538720Y77882D01*
X539338Y78500D01*
X540007Y79061D01*
X540722Y79562D01*
X541478Y79999D01*
X542270Y80368D01*
X543090Y80666D01*
X543934Y80892D01*
X544794Y81044D01*
X545663Y81120D01*
X546537Y81120D01*
X547407Y81044D01*
X548266Y80892D01*
X549110Y80666D01*
X549930Y80368D01*
X550722Y79999D01*
X551478Y79562D01*
X552193Y79061D01*
X552862Y78500D01*
X553480Y77882D01*
X554041Y77213D01*
X554542Y76498D01*
X554979Y75742D01*
X555348Y74950D01*
X555646Y74130D01*
X555872Y73286D01*
X556024Y72427D01*
X556100Y71557D01*
X556100Y70683D01*
X556024Y69814D01*
X555872Y68954D01*
X555646Y68110D01*
X555348Y67290D01*
X554979Y66498D01*
X554542Y65742D01*
X554041Y65027D01*
X553480Y64358D01*
X552862Y63740D01*
X552193Y63179D01*
X551478Y62678D01*
X550722Y62241D01*
X549930Y61872D01*
X549110Y61574D01*
X548266Y61348D01*
X547407Y61196D01*
X546537Y61120D01*
X545663Y61120D01*
M02*
