M48
;GenerationSoftware,Autodesk,EAGLE,9.6.2*%
;CreationDate,2022-06-28T13:10:31Z*%
FMAT,2
ICI,OFF
METRIC,TZ,000.000
T9C0.350
T8C1.000
T7C1.016
T6C1.100
T5C1.270
T4C1.700
T3C2.000
T2C3.048
T1C3.200
%
G90
M71
T1
X77470Y66040
X29210Y66040
X77470Y-8890
X29210Y-15240
T2
X142240Y-43180
X25400Y-44450
X26670Y96520
X142240Y95250
T3
X54610Y7112
T4
X140970Y3250
X140970Y-710
X140970Y69290
X140970Y65330
X116280Y92710
X112320Y92710
X64210Y92710
X60250Y92710
T5
X137732Y-22123
X130810Y-22860
T6
X119380Y31750
X121920Y31750
X111760Y31750
X109220Y31750
X106680Y31750
X104140Y31750
X111760Y44450
X109220Y44450
X106680Y44450
X104140Y44450
X116840Y44450
X119380Y44450
X121920Y44450
X116840Y31750
X114300Y31750
X114300Y44450
T7
X29210Y7620
X29210Y5080
X29210Y2540
X29210Y0
X29210Y-2540
X29210Y-5080
X29210Y-7620
X29210Y-10160
X77470Y-5080
X77470Y-2540
X77470Y0
X77470Y2540
X77470Y5080
X77470Y7620
X77470Y10160
X77470Y17780
X77470Y20320
X77470Y22860
X77470Y25400
X77470Y27940
X77470Y30480
X77470Y33020
X77470Y35560
X77470Y39370
X77470Y41910
X77470Y44450
X77470Y46990
X77470Y49530
X77470Y52070
X77470Y54610
X77470Y57150
X77470Y-12700
X77470Y-15240
X74930Y-12700
X74930Y-15240
X72390Y-12700
X72390Y-15240
X69850Y-12700
X69850Y-15240
X67310Y-15240
X64770Y-12700
X64770Y-15240
X62230Y-12700
X62230Y-15240
X59690Y-12700
X59690Y-15240
X57150Y-12700
X57150Y-15240
X54610Y-12700
X54610Y-15240
X52070Y-12700
X52070Y-15240
X49530Y-12700
X49530Y-15240
X46990Y-12700
X46990Y-15240
X44450Y-12700
X44450Y-15240
X41910Y-12700
X41910Y-15240
X39370Y-12700
X39370Y-15240
X67310Y-12700
X36830Y-15240
X34290Y-12700
X34290Y-15240
X93980Y80010
X93980Y77470
X93980Y74930
X93980Y72390
X93980Y69850
X93980Y67310
X93980Y64770
X93980Y62230
X93980Y59690
X93980Y57150
X36830Y-12700
X29210Y35560
X29210Y48260
X29210Y45720
X29210Y43180
X29210Y40640
X93980Y13970
X93980Y11430
X93980Y8890
X93980Y6350
X93980Y3810
X93980Y1270
X93980Y-1270
X93980Y-3810
X93980Y-6350
X93980Y-8890
X29210Y38100
X77470Y12700
X29210Y30480
X29210Y27940
X129540Y-3810
X129540Y-1270
X129540Y1270
X129540Y3810
X129540Y6350
X129540Y8890
X129540Y11430
X129540Y13970
X129540Y62230
X129540Y64770
X129540Y67310
X129540Y69850
X129540Y72390
X129540Y74930
X129540Y77470
X129540Y80010
X29210Y25400
X29210Y22860
X29210Y20320
X29210Y17780
X30480Y-31750
X30480Y-29210
X30480Y-26670
X46990Y-27940
X49530Y-27940
X52070Y-27940
X54610Y-27940
X77470Y-31750
X74930Y-31750
X72390Y-31750
X69850Y-31750
X96520Y-30480
X93980Y-30480
X91440Y-30480
X88900Y-30480
X100330Y-44450
X100330Y-41910
X100330Y-39370
X100330Y-36830
X45720Y-43180
X43180Y-43180
X40640Y-43180
X38100Y-43180
X35560Y-43180
X29210Y15240
X29210Y12700
X138430Y41910
X138430Y39370
X138430Y36830
X138430Y34290
X40640Y93980
X38100Y93980
X35560Y93980
T8
X138430Y-13970
X121920Y-22860
T9
X45720Y-24130
X58420Y-26670
X25400Y-21590
X62230Y52070
X87630Y-7620
X80010Y-25400
X76200Y-20320
X88900Y-22860
M30